HIERARCHY
ROOT root
{
	OFFSET	0	13.1	24.9
	CHANNELS 6  Xposition Yposition Zposition Xrotation Yrotation Zrotation
	JOINT spine_1
	{
		OFFSET	0	9.99999	0
		CHANNELS 3  Xrotation Yrotation Zrotation
		JOINT spine_2
		{
			OFFSET	0	112	-10
			CHANNELS 3  Xrotation Yrotation Zrotation
			JOINT spine_3
			{
				OFFSET	0	206.5	19.3
				CHANNELS 3  Xrotation Yrotation Zrotation
				JOINT spine_4
				{
					OFFSET	0	110.4	14.6
					CHANNELS 3  Xrotation Yrotation Zrotation
					JOINT neck_1
					{
						OFFSET	0	71.8	-50.3
						CHANNELS 3  Xrotation Yrotation Zrotation
						JOINT neck_2
						{
							OFFSET	0	86.2	-25.8
							CHANNELS 3  Xrotation Yrotation Zrotation
							JOINT head_ee
							{
								OFFSET	0	179.8	-8.7
								CHANNELS 3  Xrotation Yrotation Zrotation
								End Site
								{
									OFFSET	1	0	0
								}
							}
						}
					}
					JOINT left_clavicle
					{
						OFFSET	-43.2	22.4	-70.8
						CHANNELS 3  Xrotation Yrotation Zrotation
						JOINT left_shoulder
						{
							OFFSET	-93.9	-5.79999	48.7
							CHANNELS 3  Xrotation Yrotation Zrotation
							JOINT left_elbow
							{
								OFFSET	-291.4	-30.8	15.2
								CHANNELS 3  Xrotation Yrotation Zrotation
								JOINT left_lowarm_twist
								{
									OFFSET	-110.7	-3.89999	13.6
									CHANNELS 3  Xrotation Yrotation Zrotation
									JOINT left_hand
									{
										OFFSET	-110.7	-3.89999	13.6
										CHANNELS 3  Xrotation Yrotation Zrotation
										JOINT left_ee
										{
											OFFSET	-80.8	-5.10001	12.1
											CHANNELS 3  Xrotation Yrotation Zrotation
											End Site
											{
												OFFSET	1	0	0
											}
										}
									}
								}
							}
						}
					}
					JOINT right_clavicle
					{
						OFFSET	43.2	22.4	-70.8
						CHANNELS 3  Xrotation Yrotation Zrotation
						JOINT right_shoulder
						{
							OFFSET	93.9	-5.79999	48.7
							CHANNELS 3  Xrotation Yrotation Zrotation
							JOINT right_elbow
							{
								OFFSET	291.4	-30.8	15.2
								CHANNELS 3  Xrotation Yrotation Zrotation
								JOINT right_lowarm_twist
								{
									OFFSET	110.7	-3.89999	13.6
									CHANNELS 3  Xrotation Yrotation Zrotation
									JOINT right_hand
									{
										OFFSET	110.7	-3.89999	13.6
										CHANNELS 3  Xrotation Yrotation Zrotation
										JOINT right_ee
										{
											OFFSET	80.8	-5.10001	12.1
											CHANNELS 3  Xrotation Yrotation Zrotation
											End Site
											{
												OFFSET	1	0	0
											}
										}
									}
								}
							}
						}
					}
				}
			}
		}
	}
	JOINT left_hip
	{
		OFFSET	-82.8	-127.5	0.300001
		CHANNELS 3  Xrotation Yrotation Zrotation
		JOINT left_knee
		{
			OFFSET	-28.2	-396.7	2.2
			CHANNELS 3  Xrotation Yrotation Zrotation
			JOINT left_ankle
			{
				OFFSET	-11.7	-411.3	35.4
				CHANNELS 3  Xrotation Yrotation Zrotation
				JOINT left_toes
				{
					OFFSET	0	-60	-88.6
					CHANNELS 3  Xrotation Yrotation Zrotation
					JOINT left_foot_ee
					{
						OFFSET	-22.5	-16.5	-42.2
						CHANNELS 3  Xrotation Yrotation Zrotation
						End Site
						{
							OFFSET	1	0	0
						}
					}
				}
			}
		}
	}
	JOINT right_hip
	{
		OFFSET	82.8	-127.5	0.300001
		CHANNELS 3  Xrotation Yrotation Zrotation
		JOINT right_knee
		{
			OFFSET	28.2	-396.7	2.2
			CHANNELS 3  Xrotation Yrotation Zrotation
			JOINT right_ankle
			{
				OFFSET	11.7	-411.3	35.4
				CHANNELS 3  Xrotation Yrotation Zrotation
				JOINT right_toes
				{
					OFFSET	0	-60	-88.6
					CHANNELS 3  Xrotation Yrotation Zrotation
					JOINT right_foot_ee
					{
						OFFSET	22.5	-16.5	-42.2
						CHANNELS 3  Xrotation Yrotation Zrotation
						End Site
						{
							OFFSET	1	0	0
						}
					}
				}
			}
		}
	}
}
MOTION
Frames: 8
Frame Time: 0.02
2393.55 705.826 -1285.75 -11.6368 52.3262 9.35344 3.05492 0.461666 0.524804 3.05497 0.427337 0.553117 3.05911 0.334782 0.613575 3.05884 0.427482 0.553005 -14.2151 18.4426 -1.67676 -15.4371 36.2108 4.86705 -0.0 0.0 -0.0 -0.205963 24.3572 2.53539 -19.3225 -15.3226 62.8804 1.7421 -40.7902 0.647755 -32.2176 -2.16405 3.44757 -0.855955 3.55499 -4.16492 -0.0 0.0 -0.0 13.7772 26.1267 -27.4665 -18.9555 13.7376 -63.8295 0.650955 17.8727 -0.102361 78.3564 3.65039 8.51442 -3.20746 -27.4085 6.84333 0.0 0.0 0.0 18.0871 51.9033 -16.3624 -19.8631 0.297243 3.01841 38.7182 -22.8506 -5.36689 11.8959 -0.0 -0.0 -0.0 0.0 -0.0 7.00679 6.2019 -0.533582 -9.95767 -0.28018 -1.50058 37.301 30.4017 5.67346 -10.7478 0.0 0.0 0.0 0.0 0.0 
2389.0 705.692 -1286.96 -11.9541 54.3592 9.61733 3.0661 0.48345 0.470643 3.06611 0.452523 0.500452 3.07009 0.368065 0.56547 3.06993 0.45275 0.500246 -14.7957 18.4572 -0.305554 -16.0613 35.4692 6.35412 -0.0 0.0 -0.0 -0.43244 23.9655 2.18412 -20.2768 -14.7349 63.9364 1.76049 -41.0879 0.659806 -32.4275 -2.18416 3.46548 -0.806326 3.02642 -4.06775 -0.0 0.0 -0.0 13.9636 26.2462 -27.8873 -17.841 13.8251 -63.7092 0.632438 17.3954 -0.0967519 78.6735 3.68647 8.53323 -3.47611 -27.609 8.20992 0.0 0.0 0.0 23.6116 50.3515 -18.5475 -26.9123 0.149894 4.08944 38.8675 -17.154 -5.13814 13.4281 -0.0 -0.0 -0.0 0.0 -0.0 5.75809 6.66822 0.0780536 -9.3176 -0.270056 -1.40289 37.2999 30.531 5.68247 -10.681 0.0 0.0 0.0 0.0 0.0 
2385.4 706.453 -1288.75 -12.7569 55.8731 10.4085 3.15907 0.473836 0.45316 3.15907 0.44404 0.482393 3.16284 0.363415 0.545713 3.1627 0.445039 0.481471 -14.444 18.089 -1.07178 -15.6261 35.1917 5.361 -0.0 0.0 -0.0 -0.577347 23.6165 1.94416 -21.1088 -14.3259 64.3725 1.68938 -39.9216 0.613615 -32.2991 -2.17185 3.45454 -0.751894 2.1341 -4.09611 -0.0 0.0 -0.0 14.1436 26.2167 -28.3126 -17.3196 13.8383 -63.3207 0.609849 16.8098 -0.0901084 78.5982 3.67789 8.52878 -3.68123 -27.7105 9.28394 0.0 0.0 0.0 26.2415 49.1495 -19.9893 -30.8663 0.00991092 4.68 38.8263 -14.8428 -5.05574 15.3121 -0.0 -0.0 -0.0 0.0 -0.0 5.57808 5.87119 -0.150474 -9.32695 -0.270212 -1.40431 37.09 30.313 5.64512 -10.5848 0.0 0.0 0.0 0.0 0.0 
2378.53 703.917 -1290.19 -13.3678 58.0151 10.993 3.16499 0.336479 0.432028 3.16504 0.308306 0.452563 3.16747 0.234024 0.495074 3.16726 0.309274 0.451902 -14.7416 17.6139 0.233053 -15.84 33.5379 6.46544 -0.0 0.0 -0.0 -0.903744 23.6205 1.49975 -22.8512 -14.0537 64.7893 1.72239 -40.4681 0.634922 -32.5569 -2.19658 3.47649 -0.698903 1.32974 -4.09357 -0.0 0.0 -0.0 14.3016 26.0484 -28.705 -15.8395 14.1419 -63.0872 0.580876 16.0533 -0.0819129 78.7114 3.6908 8.53547 -4.03828 -28.781 10.5844 0.0 0.0 0.0 23.5499 39.2337 -16.494 -35.0423 -0.181851 5.29191 35.3354 -9.67602 -4.59048 16.5914 -0.0 -0.0 -0.0 0.0 -0.0 5.81021 5.80718 0.106159 -12.1 -0.306115 -1.82825 37.2523 30.6122 5.68323 -10.2058 0.0 0.0 0.0 0.0 0.0 
2374.21 706.9 -1290.85 -13.7057 58.4517 11.2329 3.25309 0.514714 0.394484 3.25304 0.488569 0.426437 3.25672 0.416937 0.496701 3.25671 0.490149 0.42462 -15.5172 17.7632 0.553297 -16.741 33.6973 7.09711 -0.0 0.0 -0.0 -0.997392 23.6724 1.37926 -23.3038 -13.2704 65.6792 1.65158 -39.2849 0.589515 -32.514 -2.19246 3.47284 -0.692512 1.3127 -4.05836 -0.0 0.0 -0.0 14.1718 25.9545 -28.4116 -14.7402 14.4796 -62.724 0.683137 18.6962 -0.112458 78.926 3.71528 8.54807 -3.74477 -27.5595 9.72931 0.0 0.0 0.0 27.6804 39.9004 -18.9681 -39.3863 -0.428186 5.91219 31.7567 -7.80237 -4.19226 16.6051 -0.0 -0.0 -0.0 0.0 -0.0 5.31471 5.68745 0.020507 -11.1515 -0.296145 -1.68307 36.782 31.0859 5.66736 -10.4358 0.0 0.0 0.0 0.0 0.0 
2368.36 704.769 -1291.49 -12.9625 58.8965 10.4556 3.1364 0.416359 0.406545 3.1364 0.389646 0.432215 3.13936 0.317305 0.487802 3.13924 0.390361 0.431569 -16.6613 18.009 1.70753 -18.0341 33.609 8.66274 -0.0 0.0 -0.0 -1.20545 24.14 1.16344 -26.7497 -14.8688 66.0441 1.64548 -39.1812 0.58566 -33.6144 -2.29906 3.56536 -0.652206 1.84893 -3.55688 -0.0 0.0 -0.0 13.8143 25.9781 -27.5715 -11.3927 15.4096 -63.9872 0.696418 19.0337 -0.116752 78.7697 3.69745 8.5389 -3.70724 -25.869 10.555 0.0 0.0 0.0 28.1784 34.2227 -17.2515 -41.5397 -0.567616 6.21246 31.8693 -3.77097 -4.14348 15.495 -0.0 -0.0 -0.0 0.0 -0.0 3.81449 5.62017 0.856183 -10.9468 -0.293677 -1.65175 37.1364 32.0892 5.77966 -10.2189 0.0 0.0 0.0 0.0 0.0 
2364.79 706.692 -1292.36 -12.6556 60.7329 9.94137 3.04698 0.267005 0.610319 3.04716 0.227629 0.626071 3.04961 0.125949 0.654152 3.04908 0.227678 0.626053 -18.4617 17.7531 3.15439 -19.9481 32.4919 10.4706 -0.0 0.0 -0.0 -1.09731 23.9773 1.28626 -27.7702 -13.6501 66.3291 1.58618 -38.1555 0.548604 -32.216 -2.16391 3.44744 -0.823625 2.34888 -4.47938 -0.0 0.0 -0.0 14.2176 25.7374 -28.5459 -9.84067 16.0982 -62.7252 0.746663 20.2982 -0.133663 78.7001 3.68951 8.5348 -3.77516 -25.7342 11.0253 0.0 0.0 0.0 30.7808 31.4698 -17.6483 -42.8186 -0.655753 6.38829 29.4463 -3.35312 -3.88207 13.5009 -0.0 -0.0 -0.0 0.0 -0.0 3.36312 5.21468 1.06245 -11.6673 -0.301865 -1.762 37.0435 32.7373 5.81985 -10.9008 0.0 0.0 0.0 0.0 0.0 
2363.41 710.971 -1292.36 -13.7321 60.433 10.6604 3.16901 0.353402 0.693318 3.16923 0.308569 0.714399 3.17302 0.193564 0.753731 3.17237 0.31017 0.713705 -20.4884 17.4827 3.95968 -22.1401 31.733 11.7518 -0.0 0.0 -0.0 -0.952709 23.798 1.45732 -28.9783 -13.5263 66.6349 1.5269 -37.1006 0.51241 -31.6961 -2.1144 3.40277 -0.903191 3.18489 -4.6407 -0.0 0.0 -0.0 14.3165 26.2482 -28.7147 -8.10465 16.6937 -62.6457 0.796462 21.5313 -0.151441 78.6356 3.68215 8.53099 -3.61365 -24.2261 11.0131 0.0 0.0 0.0 31.7592 27.4219 -16.7137 -43.6551 -0.715525 6.50223 27.9391 -1.94593 -3.70238 10.8939 -0.0 -0.0 -0.0 0.0 -0.0 3.32806 5.0842 1.32998 -9.3227 -0.270141 -1.40367 36.8288 32.2246 5.75698 -11.9553 0.0 0.0 0.0 0.0 0.0 
